solid 
   facet normal -1.000000e+00 0.000000e+00 0.000000e+00
      outer loop
         vertex 2.013542e+01 -2.381250e+01 5.000000e+00
         vertex 2.013542e+01 -2.381250e+01 0.000000e+00
         vertex 2.013542e+01 -2.881250e+01 0.000000e+00
      endloop
   endfacet
   facet normal -1.000000e+00 0.000000e+00 0.000000e+00
      outer loop
         vertex 2.013542e+01 -2.381250e+01 5.000000e+00
         vertex 2.013542e+01 -2.881250e+01 0.000000e+00
         vertex 2.013542e+01 -2.881250e+01 5.000000e+00
      endloop
   endfacet
   facet normal 0.000000e+00 -1.000000e+00 0.000000e+00
      outer loop
         vertex 2.013542e+01 -2.881250e+01 5.000000e+00
         vertex 2.013542e+01 -2.881250e+01 0.000000e+00
         vertex 2.513542e+01 -2.881250e+01 0.000000e+00
      endloop
   endfacet
   facet normal 0.000000e+00 -1.000000e+00 0.000000e+00
      outer loop
         vertex 2.013542e+01 -2.881250e+01 5.000000e+00
         vertex 2.513542e+01 -2.881250e+01 0.000000e+00
         vertex 2.513542e+01 -2.881250e+01 5.000000e+00
      endloop
   endfacet
   facet normal 1.000000e+00 0.000000e+00 0.000000e+00
      outer loop
         vertex 2.513542e+01 -2.881250e+01 5.000000e+00
         vertex 2.513542e+01 -2.881250e+01 0.000000e+00
         vertex 2.513542e+01 -2.381250e+01 0.000000e+00
      endloop
   endfacet
   facet normal 1.000000e+00 0.000000e+00 -0.000000e+00
      outer loop
         vertex 2.513542e+01 -2.881250e+01 5.000000e+00
         vertex 2.513542e+01 -2.381250e+01 0.000000e+00
         vertex 2.513542e+01 -2.381250e+01 5.000000e+00
      endloop
   endfacet
   facet normal 0.000000e+00 1.000000e+00 -0.000000e+00
      outer loop
         vertex 2.513542e+01 -2.381250e+01 5.000000e+00
         vertex 2.513542e+01 -2.381250e+01 0.000000e+00
         vertex 2.013542e+01 -2.381250e+01 0.000000e+00
      endloop
   endfacet
   facet normal 0.000000e+00 1.000000e+00 0.000000e+00
      outer loop
         vertex 2.513542e+01 -2.381250e+01 5.000000e+00
         vertex 2.013542e+01 -2.381250e+01 0.000000e+00
         vertex 2.013542e+01 -2.381250e+01 5.000000e+00
      endloop
   endfacet
   facet normal -0.000000e+00 0.000000e+00 1.000000e+00
      outer loop
         vertex 2.513542e+01 -2.381250e+01 5.000000e+00
         vertex 2.013542e+01 -2.381250e+01 5.000000e+00
         vertex 2.013542e+01 -2.881250e+01 5.000000e+00
      endloop
   endfacet
   facet normal 0.000000e+00 0.000000e+00 1.000000e+00
      outer loop
         vertex 2.513542e+01 -2.381250e+01 5.000000e+00
         vertex 2.013542e+01 -2.881250e+01 5.000000e+00
         vertex 2.513542e+01 -2.881250e+01 5.000000e+00
      endloop
   endfacet
   facet normal 0.000000e+00 0.000000e+00 -1.000000e+00
      outer loop
         vertex 2.013542e+01 -2.881250e+01 0.000000e+00
         vertex 2.013542e+01 -2.381250e+01 0.000000e+00
         vertex 2.513542e+01 -2.381250e+01 0.000000e+00
      endloop
   endfacet
   facet normal 0.000000e+00 0.000000e+00 -1.000000e+00
      outer loop
         vertex 2.513542e+01 -2.881250e+01 0.000000e+00
         vertex 2.013542e+01 -2.881250e+01 0.000000e+00
         vertex 2.513542e+01 -2.381250e+01 0.000000e+00
      endloop
   endfacet
endsolid
